<?xml version="1.0" encoding="UTF-8"?>
<svg id="Layer_1" data-name="Layer 1" xmlns="http://www.w3.org/2000/svg" viewBox="0 0 1080 1080">
  <defs>
    <style>
      .cls-1 {
        fill: #d9dad8;
      }

      .cls-2 {
        fill: #048041;
      }

      .cls-3 {
        fill: #fbfcfc;
      }

      .cls-4 {
        fill: #39b44a;
      }

      .cls-5 {
        fill: #fff;
      }

      .cls-6 {
        fill: #84c459;
      }

      .cls-7 {
        fill: #c5db66;
      }

      .cls-8 {
        fill: #088141;
      }

      .cls-9 {
        fill: #028141;
      }
    </style>
  </defs>
  <path class="cls-4" d="M229.6,609.24c-.31-.67-.62-1.33-.93-2,.31.67.62,1.33.93,2"/>
  <g>
    <path class="cls-2" d="M421.2,540c0,76.5-62.01,138.51-138.51,138.51s-138.51-62.01-138.51-138.51,62.01-138.51,138.51-138.51,138.51,62.01,138.51,138.51"/>
    <path class="cls-2" d="M206.79,629.07c.25.27.47.57.76.79,27.77,21.39,58.98,30.26,93.74,24.83,30.63-4.78,56.06-19.29,75.3-43.62,23.56-29.8,31.47-63.7,23.93-100.98-1.19-5.89-3.61-11.53-5.46-17.29-.13-.61-.17-1.27-.42-1.83-19.43-44.62-53.29-70.27-101.65-75.45-29.84-3.19-57.31,4.96-81.47,22.76-30.11,22.18-46.59,52.38-49.35,89.59-1.96,26.45,4.95,50.97,19.26,73.29,6.86,10.7,15.19,20.17,25.37,27.9"/>
    <path class="cls-1" d="M206.79,629.07c-10.18-7.73-18.51-17.2-25.37-27.9-14.31-22.32-21.21-46.85-19.26-73.29,2.76-37.22,19.23-67.41,49.35-89.59,24.16-17.8,51.63-25.95,81.47-22.76,48.36,5.17,82.23,30.82,101.65,75.45.25.56.28,1.22.42,1.83-.96.28-1.95.48-2.89.84-8.05,3.07-16.08,6.17-24.12,9.26-.91-1.91-1.8-3.83-2.74-5.72-16.4-32.97-43.15-51.08-79.73-52.69-29.06-1.28-53.72,9.86-72.77,32.23-28.22,33.16-28.83,81.96-1.44,115.79,4.16,5.13,9.15,9.59,13.75,14.36-6.11,7.4-12.22,14.8-18.33,22.19"/>
    <path class="cls-6" d="M206.79,629.07c6.11-7.4,12.22-14.8,18.33-22.19,1.37.91,2.77,1.79,4.12,2.74,19.56,13.72,41.24,19.75,64.94,16.55,26.35-3.55,47.67-16.23,63.03-38.09,13.61-19.36,19.13-40.98,15.78-64.52-.99-6.98-3.26-13.77-4.94-20.65,8.04-3.09,16.08-6.19,24.12-9.26.93-.36,1.92-.56,2.89-.84,1.85,5.75,4.27,11.4,5.46,17.28,7.53,37.28-.37,71.18-23.93,100.98-19.24,24.33-44.67,38.85-75.3,43.62-34.76,5.42-65.97-3.44-93.74-24.83-.29-.22-.51-.53-.76-.79"/>
    <path class="cls-2" d="M368.05,502.91c1.68,6.88,3.95,13.68,4.94,20.65,3.35,23.53-2.18,45.15-15.78,64.52-15.36,21.86-36.68,34.54-63.03,38.09-23.69,3.2-45.38-2.83-64.94-16.55-1.35-.95-2.74-1.82-4.12-2.74-4.6-4.77-9.59-9.23-13.75-14.36-27.4-33.82-26.78-82.63,1.44-115.79,19.04-22.38,43.71-33.51,72.77-32.23,36.59,1.61,63.34,19.73,79.73,52.69.94,1.89,1.83,3.81,2.74,5.72"/>
    <path class="cls-2" d="M318.21,469.08c-.25-.17-.5-.35-.75-.52-.78-.47-1.52-1.03-2.34-1.41-8.54-3.92-17.45-6.43-26.86-7.05-23.65-1.57-43.74,6.41-60.12,23.23-13.69,14.07-20.58,31.3-21.03,50.96-.23,10.23,1.38,20.17,5.84,29.51.16.22.32.43.48.65l-.1-.03c.41,1.2.7,2.46,1.25,3.6,21.56,44.94,79.58,57.19,117.44,24.81,30.09-25.73,35.04-71.33,11.08-102.81-6.72-8.83-14.79-16.16-24.91-21.01l.02.06Z"/>
    <path class="cls-3" d="M318.19,469.02c10.11,4.85,18.18,12.18,24.91,21.01,23.96,31.48,19.01,77.08-11.08,102.81-37.86,32.38-95.88,20.13-117.44-24.81-.55-1.14-.84-2.4-1.25-3.6,5.64,1.63,7.78.43,8.86-4.97.22.5.45,1,.67,1.51,12.25,28.61,42.35,44.47,72.72,38.29,44.1-8.96,66.22-59.41,42.82-97.48-6.45-10.49-15.23-18.37-25.88-24.32,4.63-.42,6.61-2.79,5.77-6.86-.11-.51-.06-1.05-.09-1.58"/>
    <path class="cls-7" d="M222.18,559.46c-1.08,5.4-3.22,6.6-8.86,4.97,0,0,.1.03.09.03-.16-.22-.32-.43-.48-.65-4.46-9.34-6.07-19.28-5.84-29.51.45-19.66,7.34-36.89,21.03-50.96,16.38-16.83,36.47-24.8,60.12-23.23,9.42.63,18.32,3.13,26.86,7.05.82.38,1.56.93,2.34,1.41.25.17.5.35.75.52l-.02-.06c.03.53-.02,1.07.09,1.58.84,4.07-1.14,6.43-5.77,6.86-.44-.12-.91-.16-1.3-.36-7.36-3.92-15.26-5.8-23.52-6.49-27.37-2.28-53.97,13.7-64.72,39.11-6.96,16.44-7.37,33.06-.78,49.75"/>
    <path class="cls-3" d="M318.21,469.08c-.25-.17-.5-.34-.75-.52.25.17.5.35.75.52"/>
    <path class="cls-3" d="M212.94,563.81c.16.22.32.43.48.65-.16-.22-.32-.43-.48-.65"/>
    <path class="cls-9" d="M222.18,559.46c-6.59-16.69-6.18-33.31.78-49.75,10.76-25.41,37.35-41.39,64.72-39.11,8.26.69,16.16,2.57,23.52,6.49.39.21.87.25,1.3.36,10.65,5.95,19.44,13.83,25.88,24.32,23.41,38.07,1.28,88.52-42.82,97.48-30.37,6.17-60.47-9.68-72.72-38.29-.22-.51-.45-1.01-.67-1.51"/>
    <path class="cls-9" d="M282.44,590.97c30.73,0,55.57-24.65,55.65-55.23.08-30.44-25.02-55.6-55.42-55.57-30.34.03-55.32,25.01-55.36,55.35-.04,30.44,24.83,55.44,55.14,55.45"/>
    <path class="cls-5" d="M282.44,590.97c-30.31,0-55.17-25.01-55.14-55.45.04-30.34,25.02-55.32,55.36-55.35,30.4-.03,55.5,25.13,55.42,55.57-.08,30.58-24.92,55.23-55.65,55.23"/>
    <path class="cls-8" d="M478.11,414.53c12.79,0,22.67,3.27,29.64,9.82,6.97,6.54,10.46,16.05,10.46,28.54s-3.49,22.02-10.46,28.55c-6.97,6.54-16.85,9.8-29.64,9.8s-22.64-3.25-29.57-9.75c-6.93-6.5-10.39-16.03-10.39-28.6s3.46-22.1,10.39-28.6c6.93-6.5,16.79-9.75,29.57-9.75M478.11,432.31c-5.1,0-8.97,1.55-11.63,4.63-2.66,3.09-3.98,7.26-3.98,12.5v6.89c0,5.25,1.33,9.43,3.98,12.51,2.65,3.09,6.53,4.63,11.63,4.63s9-1.54,11.69-4.63c2.7-3.09,4.05-7.26,4.05-12.51v-6.89c0-5.24-1.35-9.41-4.05-12.5-2.69-3.09-6.59-4.63-11.69-4.63"/>
    <path class="cls-8" d="M567,431.78c7.68,0,13.6,2.52,17.76,7.54,4.17,5.03,6.26,12.46,6.26,22.3s-2.09,17.15-6.26,22.15c-4.16,4.98-10.08,7.48-17.76,7.48-6.62,0-11.93-2.15-15.94-6.46v26.4h-21.44v-78.12h17.45l1.84,8.08c4.16-6.24,10.19-9.37,18.1-9.37M560.33,447.62c-3.17,0-5.55,1.12-7.13,3.35-1.57,2.22-2.36,5.13-2.36,8.72v3.56c0,3.59.79,6.52,2.36,8.78,1.58,2.25,3.96,3.38,7.13,3.38,6.18,0,9.27-3.7,9.27-11.09v-5.7c0-7.33-3.09-10.99-9.27-10.99"/>
    <path class="cls-8" d="M630.79,431.78c10.41,0,18.37,2.44,23.85,7.33,5.5,4.88,8.25,12.36,8.25,22.42v3.66h-42.66c0,4.09.91,7.18,2.74,9.27,1.83,2.07,4.72,3.11,8.67,3.11,3.59,0,6.23-.75,7.91-2.26,1.69-1.51,2.54-3.52,2.54-6.04h20.79c0,6.9-2.62,12.29-7.86,16.18-5.24,3.87-12.89,5.8-22.95,5.8-10.56,0-18.75-2.46-24.57-7.38-5.81-4.92-8.71-12.37-8.71-22.35s2.83-17.17,8.51-22.2c5.67-5.03,13.5-7.54,23.49-7.54M631.64,445.46c-6.75,0-10.52,3.19-11.31,9.59h20.91c0-2.94-.85-5.27-2.54-6.99-1.68-1.73-4.04-2.59-7.06-2.59"/>
    <path class="cls-8" d="M712.46,431.78c6.61,0,11.57,1.84,14.87,5.5,3.3,3.66,4.95,8.93,4.95,15.82v36.85h-21.44v-34.26c0-2.44-.63-4.4-1.89-5.87-1.25-1.47-3.02-2.21-5.32-2.21-2.66,0-4.81.87-6.47,2.59-1.65,1.72-2.48,3.83-2.48,6.34v33.41h-21.45v-56.89h17.56l1.41,8.62c2.23-3.01,5.16-5.41,8.78-7.21,3.62-1.79,7.45-2.69,11.48-2.69"/>
    <rect class="cls-8" x="442.34" y="501.34" width="23.82" height="74.12"/>
    <path class="cls-8" d="M516.26,517.16c1.65,0,3.12.2,4.42.6,1.29.39,1.94.63,1.94.7v17.98h-6.89c-4.46,0-7.68,1.15-9.65,3.46-1.97,2.3-2.96,5.7-2.96,10.22v25.32h-21.45v-56.89h17.56l1.41,8.61c1.29-3.3,3.34-5.79,6.14-7.48,2.8-1.69,5.96-2.54,9.49-2.54"/>
    <path class="cls-8" d="M558.92,517.28c10.41,0,18.37,2.44,23.85,7.33,5.5,4.88,8.25,12.36,8.25,22.42v3.66h-42.66c0,4.09.91,7.18,2.74,9.27,1.83,2.07,4.72,3.11,8.67,3.11,3.59,0,6.23-.75,7.91-2.26,1.69-1.5,2.54-3.52,2.54-6.04h20.79c0,6.9-2.62,12.3-7.86,16.18-5.24,3.87-12.89,5.8-22.95,5.8-10.56,0-18.75-2.46-24.57-7.38-5.81-4.92-8.71-12.37-8.71-22.35s2.83-17.17,8.51-22.2c5.67-5.03,13.5-7.54,23.49-7.54M559.78,530.96c-6.75,0-10.52,3.2-11.31,9.59h20.91c0-2.95-.85-5.27-2.54-6.99-1.69-1.73-4.04-2.59-7.06-2.59"/>
    <rect class="cls-8" x="602.14" y="497.34" width="21.43" height="78.12"/>
    <path class="cls-8" d="M665.38,517.28c8.69,0,15.76,1.45,21.21,4.37,5.46,2.91,8.2,7.64,8.2,14.17v22.2c0,1.22.28,2.22.85,3.01.58.79,1.44,1.19,2.59,1.19h3.88v12.38c-.21.15-.77.38-1.67.7-.89.32-2.17.64-3.83.97-1.65.32-3.55.48-5.7.48-4.17,0-7.61-.63-10.3-1.87-2.69-1.26-4.53-3-5.54-5.24-2.74,2.15-5.79,3.88-9.17,5.17-3.37,1.29-7.32,1.94-11.84,1.94-13.36,0-20.04-5.31-20.04-15.94,0-5.53,1.49-9.75,4.47-12.66,2.99-2.91,7.28-4.9,12.88-5.97,5.61-1.08,12.94-1.62,21.98-1.62v-2.79c0-2.23-.78-3.92-2.32-5.07-1.54-1.15-3.53-1.72-5.97-1.72-2.22,0-4.14.4-5.75,1.19-1.62.79-2.43,2.05-2.43,3.76v.43h-21.13c-.07-.35-.1-.86-.1-1.51,0-5.39,2.56-9.66,7.7-12.81,5.14-3.17,12.49-4.75,22.05-4.75M673.34,550.69c-6.1,0-10.6.66-13.52,1.99-2.91,1.33-4.37,3.11-4.37,5.34,0,3.59,2.44,5.39,7.33,5.39,2.8,0,5.26-.75,7.38-2.26,2.12-1.51,3.18-3.39,3.18-5.62v-4.83Z"/>
    <path class="cls-8" d="M748.34,517.28c6.61,0,11.57,1.84,14.87,5.5,3.3,3.66,4.95,8.93,4.95,15.83v36.85h-21.45v-34.26c0-2.44-.63-4.4-1.89-5.87-1.25-1.47-3.02-2.21-5.32-2.21-2.65,0-4.81.87-6.47,2.59-1.65,1.72-2.48,3.83-2.48,6.34v33.41h-21.45v-56.89h17.56l1.41,8.61c2.23-3.01,5.16-5.41,8.78-7.21,3.62-1.79,7.45-2.69,11.48-2.69"/>
    <path class="cls-8" d="M822.36,575.46l-1.84-8.08c-4.16,6.25-10.2,9.37-18.1,9.37s-13.61-2.51-17.78-7.53c-4.16-5.03-6.24-12.47-6.24-22.31s2.08-17.15,6.24-22.13c4.17-4.99,10.09-7.49,17.78-7.49,6.53,0,11.85,2.19,15.94,6.57v-26.51h21.45v78.12h-17.45ZM809.11,533.12c-6.18,0-9.27,3.7-9.27,11.09v5.7c0,7.33,3.09,10.99,9.27,10.99,3.15,0,5.52-1.11,7.09-3.33,1.58-2.23,2.38-5.14,2.38-8.73v-3.55c0-3.6-.79-6.53-2.38-8.78-1.57-2.26-3.94-3.4-7.09-3.4"/>
    <polygon class="cls-8" points="494.28 660.96 463.13 624.98 463.13 660.96 441.27 660.96 441.27 586.84 462.06 586.84 493.2 623.36 493.2 586.84 515.07 586.84 515.07 660.96 494.28 660.96"/>
    <path class="cls-8" d="M558.92,602.78c10.41,0,18.37,2.44,23.85,7.33,5.5,4.88,8.25,12.36,8.25,22.42v3.66h-42.66c0,4.09.91,7.18,2.74,9.27,1.83,2.08,4.72,3.11,8.67,3.11,3.59,0,6.23-.75,7.91-2.26,1.69-1.51,2.54-3.52,2.54-6.04h20.79c0,6.9-2.62,12.29-7.86,16.18-5.24,3.87-12.89,5.8-22.95,5.8-10.56,0-18.75-2.46-24.57-7.38-5.81-4.92-8.71-12.36-8.71-22.35s2.83-17.17,8.51-22.2c5.67-5.03,13.5-7.55,23.49-7.55M559.78,616.47c-6.75,0-10.52,3.19-11.31,9.59h20.91c0-2.94-.85-5.27-2.54-6.99-1.69-1.73-4.04-2.59-7.06-2.59"/>
    <path class="cls-8" d="M639.31,604.07v14.55h-12.08v21.65c0,2.59.43,4.48,1.29,5.67.87,1.18,2.45,1.77,4.75,1.77h6.04v12.6c-1.73.58-3.96,1.05-6.69,1.41-2.72.35-5.09.54-7.11.54-6.32,0-11.19-1.15-14.6-3.45-3.4-2.3-5.1-6.21-5.1-11.74v-28.44h-7.98v-14.55h8.83l4.63-17.23h15.94v17.23h12.08Z"/>
    <polygon class="cls-8" points="702.65 660.96 693.82 629.28 693.38 629.28 684.45 660.96 663.54 660.96 642.75 604.07 665.8 604.07 674.43 637.69 675.18 637.69 684.12 604.07 705.46 604.07 714.08 637.69 714.83 637.69 723.56 604.07 744.45 604.07 723.56 660.96 702.65 660.96"/>
    <path class="cls-8" d="M780.34,602.78c9.98,0,17.82,2.53,23.54,7.59,5.71,5.06,8.56,12.45,8.56,22.15s-2.86,17.07-8.56,22.13c-5.71,5.06-13.56,7.59-23.54,7.59s-17.81-2.51-23.49-7.53c-5.68-5.03-8.51-12.43-8.51-22.2s2.84-17.17,8.51-22.2c5.67-5.03,13.5-7.54,23.49-7.54M780.34,617.32c-7.04,0-10.56,4.06-10.56,12.18v6.14c0,8.05,3.52,12.08,10.56,12.08s10.67-4.02,10.67-12.08v-6.14c0-8.12-3.56-12.18-10.67-12.18"/>
    <path class="cls-8" d="M857.38,602.67c1.65,0,3.12.2,4.42.6,1.29.39,1.94.63,1.94.7v17.98h-6.89c-4.46,0-7.68,1.15-9.65,3.46-1.97,2.3-2.96,5.7-2.96,10.22v25.33h-21.45v-56.89h17.56l1.41,8.62c1.29-3.3,3.34-5.79,6.14-7.48,2.8-1.69,5.96-2.54,9.48-2.54"/>
    <polygon class="cls-8" points="910.28 604.07 935.27 604.07 914.26 627.02 935.81 660.96 911.47 660.96 899.51 641.46 892.07 648.69 892.07 660.96 870.62 660.96 870.62 582.74 892.07 582.74 892.07 625.83 910.28 604.07"/>
  </g>
</svg>