<svg xmlns="http://www.w3.org/2000/svg" xmlns:xlink="http://www.w3.org/1999/xlink" width="100" zoomAndPan="magnify" viewBox="0 0 75 37.5" height="50" preserveAspectRatio="xMidYMid meet" version="1.0"><path fill="#048041" d="M 11.429688 18.550781 C 11.429688 20.652344 9.738281 22.359375 7.644531 22.359375 C 5.554688 22.359375 3.863281 20.652344 3.863281 18.550781 C 3.863281 16.445312 5.554688 14.738281 7.644531 14.738281 C 9.738281 14.738281 11.429688 16.445312 11.429688 18.550781 " fill-opacity="1" fill-rule="nonzero"/><path fill="#d9dad8" d="M 5.574219 21 C 5.292969 20.789062 5.066406 20.527344 4.878906 20.234375 C 4.488281 19.617188 4.300781 18.945312 4.351562 18.21875 C 4.429688 17.191406 4.878906 16.363281 5.703125 15.753906 C 6.363281 15.261719 7.113281 15.039062 7.925781 15.125 C 9.25 15.269531 10.175781 15.972656 10.703125 17.203125 C 10.710938 17.21875 10.710938 17.234375 10.714844 17.253906 C 10.691406 17.257812 10.664062 17.265625 10.636719 17.273438 C 10.417969 17.359375 10.199219 17.445312 9.980469 17.53125 C 9.953125 17.476562 9.929688 17.425781 9.902344 17.371094 C 9.457031 16.464844 8.726562 15.96875 7.726562 15.921875 C 6.929688 15.886719 6.257812 16.195312 5.738281 16.808594 C 4.964844 17.722656 4.949219 19.0625 5.699219 19.992188 C 5.8125 20.136719 5.949219 20.257812 6.074219 20.390625 C 5.90625 20.59375 5.738281 20.796875 5.574219 21 " fill-opacity="1" fill-rule="nonzero"/><path fill="#84c459" d="M 5.574219 21 C 5.738281 20.796875 5.90625 20.59375 6.074219 20.390625 C 6.109375 20.414062 6.148438 20.4375 6.1875 20.464844 C 6.722656 20.84375 7.3125 21.007812 7.960938 20.921875 C 8.679688 20.824219 9.261719 20.472656 9.683594 19.871094 C 10.054688 19.339844 10.207031 18.746094 10.113281 18.097656 C 10.085938 17.90625 10.023438 17.71875 9.980469 17.53125 C 10.199219 17.445312 10.417969 17.359375 10.636719 17.273438 C 10.664062 17.265625 10.691406 17.257812 10.714844 17.25 C 10.765625 17.410156 10.832031 17.566406 10.867188 17.726562 C 11.070312 18.753906 10.855469 19.683594 10.210938 20.503906 C 9.6875 21.175781 8.992188 21.574219 8.15625 21.703125 C 7.203125 21.855469 6.351562 21.609375 5.59375 21.019531 C 5.585938 21.015625 5.578125 21.007812 5.574219 21 " fill-opacity="1" fill-rule="nonzero"/><path fill="#fbfcfc" d="M 8.617188 16.597656 C 8.894531 16.730469 9.113281 16.933594 9.296875 17.175781 C 9.953125 18.042969 9.816406 19.296875 8.992188 20.003906 C 7.960938 20.894531 6.375 20.558594 5.785156 19.320312 C 5.769531 19.289062 5.761719 19.253906 5.75 19.222656 C 5.90625 19.265625 5.964844 19.234375 5.992188 19.085938 C 6 19.097656 6.003906 19.113281 6.011719 19.125 C 6.347656 19.914062 7.167969 20.351562 8 20.179688 C 9.203125 19.933594 9.808594 18.546875 9.167969 17.5 C 8.992188 17.210938 8.75 16.992188 8.460938 16.828125 C 8.585938 16.816406 8.640625 16.753906 8.617188 16.640625 C 8.617188 16.625 8.617188 16.613281 8.617188 16.597656 " fill-opacity="1" fill-rule="nonzero"/><path fill="#c5db66" d="M 5.992188 19.085938 C 5.964844 19.234375 5.90625 19.265625 5.75 19.222656 C 5.75 19.222656 5.753906 19.222656 5.753906 19.222656 C 5.75 19.21875 5.746094 19.210938 5.742188 19.203125 C 5.617188 18.949219 5.574219 18.675781 5.582031 18.394531 C 5.59375 17.851562 5.78125 17.378906 6.15625 16.992188 C 6.601562 16.527344 7.152344 16.308594 7.796875 16.351562 C 8.054688 16.371094 8.300781 16.4375 8.53125 16.546875 C 8.554688 16.554688 8.574219 16.570312 8.597656 16.585938 C 8.601562 16.589844 8.609375 16.59375 8.617188 16.597656 C 8.617188 16.613281 8.617188 16.625 8.617188 16.640625 C 8.640625 16.753906 8.585938 16.816406 8.460938 16.828125 C 8.449219 16.828125 8.4375 16.824219 8.425781 16.820312 C 8.226562 16.710938 8.007812 16.660156 7.78125 16.640625 C 7.035156 16.578125 6.308594 17.019531 6.015625 17.71875 C 5.824219 18.167969 5.8125 18.625 5.992188 19.085938 " fill-opacity="1" fill-rule="nonzero"/><path fill="#ffffff" d="M 7.640625 19.953125 C 6.8125 19.953125 6.132812 19.265625 6.132812 18.425781 C 6.132812 17.59375 6.816406 16.90625 7.644531 16.902344 C 8.476562 16.902344 9.164062 17.59375 9.160156 18.433594 C 9.15625 19.273438 8.480469 19.953125 7.640625 19.953125 " fill-opacity="1" fill-rule="nonzero"/><path fill="#606060" d="M 14.191406 16.382812 C 14.785156 16.382812 15.242188 16.535156 15.566406 16.84375 C 15.890625 17.148438 16.050781 17.59375 16.050781 18.175781 C 16.050781 18.761719 15.890625 19.207031 15.566406 19.511719 C 15.242188 19.816406 14.785156 19.96875 14.191406 19.96875 C 13.597656 19.96875 13.136719 19.820312 12.816406 19.515625 C 12.496094 19.210938 12.332031 18.765625 12.332031 18.175781 C 12.332031 17.589844 12.496094 17.144531 12.816406 16.839844 C 13.136719 16.535156 13.597656 16.382812 14.191406 16.382812 M 14.191406 17.214844 C 13.953125 17.214844 13.773438 17.289062 13.648438 17.429688 C 13.527344 17.574219 13.464844 17.769531 13.464844 18.015625 L 13.464844 18.335938 C 13.464844 18.582031 13.527344 18.777344 13.648438 18.921875 C 13.773438 19.066406 13.953125 19.140625 14.191406 19.140625 C 14.425781 19.140625 14.609375 19.066406 14.734375 18.921875 C 14.859375 18.777344 14.921875 18.582031 14.921875 18.335938 L 14.921875 18.015625 C 14.921875 17.769531 14.859375 17.574219 14.734375 17.429688 C 14.609375 17.289062 14.425781 17.214844 14.191406 17.214844 " fill-opacity="1" fill-rule="nonzero"/><path fill="#606060" d="M 18.320312 17.191406 C 18.675781 17.191406 18.949219 17.308594 19.144531 17.542969 C 19.335938 17.777344 19.433594 18.125 19.433594 18.585938 C 19.433594 19.042969 19.335938 19.386719 19.144531 19.621094 C 18.949219 19.855469 18.675781 19.96875 18.320312 19.96875 C 18.011719 19.96875 17.765625 19.871094 17.578125 19.667969 L 17.578125 20.902344 L 16.582031 20.902344 L 16.582031 17.25 L 17.390625 17.25 L 17.476562 17.628906 C 17.671875 17.335938 17.949219 17.191406 18.316406 17.191406 M 18.007812 17.929688 C 17.859375 17.929688 17.75 17.984375 17.675781 18.085938 C 17.605469 18.191406 17.566406 18.328125 17.566406 18.496094 L 17.566406 18.660156 C 17.566406 18.828125 17.605469 18.964844 17.675781 19.070312 C 17.75 19.175781 17.859375 19.230469 18.007812 19.230469 C 18.296875 19.230469 18.4375 19.058594 18.4375 18.710938 L 18.4375 18.445312 C 18.4375 18.101562 18.296875 17.929688 18.007812 17.929688 " fill-opacity="1" fill-rule="nonzero"/><path fill="#606060" d="M 21.28125 17.191406 C 21.765625 17.191406 22.132812 17.304688 22.386719 17.53125 C 22.644531 17.761719 22.769531 18.109375 22.769531 18.582031 L 22.769531 18.75 L 20.789062 18.75 C 20.789062 18.941406 20.832031 19.085938 20.917969 19.183594 C 21.003906 19.28125 21.136719 19.332031 21.320312 19.332031 C 21.488281 19.332031 21.609375 19.296875 21.6875 19.226562 C 21.765625 19.15625 21.804688 19.0625 21.804688 18.941406 L 22.769531 18.941406 C 22.769531 19.265625 22.648438 19.519531 22.40625 19.699219 C 22.164062 19.878906 21.808594 19.96875 21.339844 19.96875 C 20.851562 19.96875 20.46875 19.855469 20.199219 19.625 C 19.929688 19.394531 19.792969 19.046875 19.792969 18.582031 C 19.792969 18.113281 19.925781 17.777344 20.191406 17.542969 C 20.453125 17.308594 20.816406 17.191406 21.28125 17.191406 M 21.320312 17.828125 C 21.007812 17.828125 20.832031 17.980469 20.796875 18.277344 L 21.765625 18.277344 C 21.765625 18.140625 21.726562 18.03125 21.648438 17.949219 C 21.570312 17.871094 21.460938 17.828125 21.320312 17.828125 " fill-opacity="1" fill-rule="nonzero"/><path fill="#606060" d="M 25.074219 17.191406 C 25.382812 17.191406 25.609375 17.277344 25.765625 17.449219 C 25.917969 17.617188 25.996094 17.863281 25.996094 18.1875 L 25.996094 19.910156 L 25 19.910156 L 25 18.308594 C 25 18.195312 24.96875 18.101562 24.910156 18.035156 C 24.851562 17.964844 24.769531 17.929688 24.664062 17.929688 C 24.539062 17.929688 24.441406 17.972656 24.363281 18.050781 C 24.285156 18.132812 24.25 18.230469 24.25 18.347656 L 24.25 19.910156 L 23.253906 19.910156 L 23.253906 17.25 L 24.066406 17.25 L 24.132812 17.652344 C 24.238281 17.511719 24.371094 17.402344 24.542969 17.316406 C 24.710938 17.230469 24.886719 17.191406 25.074219 17.191406 " fill-opacity="1" fill-rule="nonzero"/><path fill="#606060" d="M 27.851562 16.382812 L 28.957031 16.382812 L 28.957031 19.851562 L 27.851562 19.851562 Z M 27.851562 16.382812 " fill-opacity="1" fill-rule="nonzero"/><path fill="#606060" d="M 31.285156 17.125 C 31.363281 17.125 31.429688 17.132812 31.488281 17.152344 C 31.550781 17.171875 31.582031 17.179688 31.582031 17.183594 L 31.582031 18.027344 L 31.261719 18.027344 C 31.054688 18.027344 30.902344 18.082031 30.8125 18.1875 C 30.71875 18.296875 30.675781 18.453125 30.675781 18.664062 L 30.675781 19.851562 L 29.679688 19.851562 L 29.679688 17.191406 L 30.492188 17.191406 L 30.558594 17.59375 C 30.621094 17.4375 30.714844 17.320312 30.84375 17.242188 C 30.976562 17.164062 31.121094 17.125 31.285156 17.125 " fill-opacity="1" fill-rule="nonzero"/><path fill="#606060" d="M 33.265625 17.128906 C 33.75 17.128906 34.121094 17.242188 34.375 17.472656 C 34.628906 17.699219 34.757812 18.050781 34.757812 18.519531 L 34.757812 18.691406 L 32.777344 18.691406 C 32.777344 18.882812 32.820312 19.027344 32.902344 19.125 C 32.988281 19.222656 33.121094 19.269531 33.304688 19.269531 C 33.472656 19.269531 33.59375 19.234375 33.671875 19.164062 C 33.753906 19.09375 33.792969 19 33.792969 18.882812 L 34.757812 18.882812 C 34.757812 19.207031 34.636719 19.457031 34.390625 19.640625 C 34.148438 19.820312 33.792969 19.910156 33.328125 19.910156 C 32.835938 19.910156 32.457031 19.796875 32.183594 19.566406 C 31.914062 19.335938 31.78125 18.988281 31.78125 18.519531 C 31.78125 18.054688 31.910156 17.71875 32.175781 17.484375 C 32.4375 17.246094 32.804688 17.128906 33.265625 17.128906 M 33.304688 17.769531 C 32.992188 17.769531 32.816406 17.917969 32.78125 18.21875 L 33.753906 18.21875 C 33.753906 18.082031 33.710938 17.972656 33.632812 17.890625 C 33.554688 17.808594 33.445312 17.769531 33.304688 17.769531 " fill-opacity="1" fill-rule="nonzero"/><path fill="#606060" d="M 35.273438 16.199219 L 36.269531 16.199219 L 36.269531 19.851562 L 35.273438 19.851562 Z M 35.273438 16.199219 " fill-opacity="1" fill-rule="nonzero"/><path fill="#606060" d="M 38.210938 17.128906 C 38.613281 17.128906 38.941406 17.199219 39.195312 17.332031 C 39.449219 17.46875 39.578125 17.691406 39.578125 17.996094 L 39.578125 19.035156 C 39.578125 19.089844 39.589844 19.136719 39.617188 19.175781 C 39.644531 19.210938 39.683594 19.230469 39.738281 19.230469 L 39.917969 19.230469 L 39.917969 19.808594 C 39.90625 19.816406 39.882812 19.828125 39.839844 19.84375 C 39.796875 19.859375 39.738281 19.871094 39.660156 19.886719 C 39.585938 19.902344 39.496094 19.910156 39.394531 19.910156 C 39.203125 19.910156 39.042969 19.882812 38.917969 19.824219 C 38.792969 19.765625 38.707031 19.683594 38.660156 19.578125 C 38.535156 19.679688 38.390625 19.757812 38.234375 19.820312 C 38.078125 19.878906 37.894531 19.910156 37.683594 19.910156 C 37.0625 19.910156 36.753906 19.664062 36.753906 19.164062 C 36.753906 18.90625 36.824219 18.710938 36.960938 18.574219 C 37.101562 18.4375 37.300781 18.34375 37.558594 18.292969 C 37.820312 18.242188 38.160156 18.21875 38.582031 18.21875 L 38.582031 18.085938 C 38.582031 17.984375 38.542969 17.90625 38.472656 17.851562 C 38.402344 17.796875 38.308594 17.769531 38.195312 17.769531 C 38.09375 17.769531 38.003906 17.789062 37.929688 17.824219 C 37.851562 17.863281 37.816406 17.921875 37.816406 18 L 37.816406 18.023438 L 36.835938 18.023438 C 36.832031 18.003906 36.828125 17.980469 36.828125 17.953125 C 36.828125 17.699219 36.949219 17.5 37.1875 17.351562 C 37.425781 17.203125 37.765625 17.128906 38.210938 17.128906 M 38.582031 18.691406 C 38.296875 18.691406 38.089844 18.722656 37.953125 18.785156 C 37.816406 18.847656 37.75 18.929688 37.75 19.035156 C 37.75 19.203125 37.863281 19.285156 38.089844 19.285156 C 38.21875 19.285156 38.335938 19.25 38.433594 19.179688 C 38.53125 19.109375 38.582031 19.023438 38.582031 18.917969 Z M 38.582031 18.691406 " fill-opacity="1" fill-rule="nonzero"/><path fill="#606060" d="M 42.0625 17.128906 C 42.371094 17.128906 42.601562 17.214844 42.753906 17.386719 C 42.90625 17.558594 42.984375 17.804688 42.984375 18.125 L 42.984375 19.851562 L 41.988281 19.851562 L 41.988281 18.246094 C 41.988281 18.132812 41.960938 18.042969 41.902344 17.972656 C 41.84375 17.90625 41.761719 17.871094 41.652344 17.871094 C 41.53125 17.871094 41.429688 17.910156 41.351562 17.992188 C 41.277344 18.070312 41.238281 18.171875 41.238281 18.289062 L 41.238281 19.851562 L 40.242188 19.851562 L 40.242188 17.191406 L 41.058594 17.191406 L 41.125 17.59375 C 41.226562 17.453125 41.363281 17.339844 41.53125 17.253906 C 41.699219 17.171875 41.875 17.128906 42.0625 17.128906 " fill-opacity="1" fill-rule="nonzero"/><path fill="#606060" d="M 45.5 19.851562 L 45.417969 19.472656 C 45.222656 19.765625 44.941406 19.910156 44.574219 19.910156 C 44.207031 19.910156 43.945312 19.792969 43.75 19.558594 C 43.554688 19.324219 43.460938 18.976562 43.460938 18.515625 C 43.460938 18.054688 43.554688 17.714844 43.75 17.480469 C 43.945312 17.246094 44.21875 17.128906 44.574219 17.128906 C 44.878906 17.128906 45.125 17.230469 45.316406 17.4375 L 45.316406 16.195312 L 46.3125 16.195312 L 46.3125 19.851562 Z M 44.886719 17.871094 C 44.597656 17.871094 44.457031 18.042969 44.457031 18.390625 L 44.457031 18.65625 C 44.457031 19 44.597656 19.167969 44.886719 19.167969 C 45.03125 19.167969 45.144531 19.117188 45.214844 19.015625 C 45.289062 18.910156 45.324219 18.773438 45.324219 18.605469 L 45.324219 18.441406 C 45.324219 18.273438 45.289062 18.132812 45.214844 18.027344 C 45.144531 17.921875 45.03125 17.871094 44.886719 17.871094 " fill-opacity="1" fill-rule="nonzero"/><path fill="#606060" d="M 50.632812 19.914062 L 49.183594 18.234375 L 49.183594 19.914062 L 48.167969 19.914062 L 48.167969 16.449219 L 49.136719 16.449219 L 50.582031 18.15625 L 50.582031 16.449219 L 51.597656 16.449219 L 51.597656 19.914062 Z M 50.632812 19.914062 " fill-opacity="1" fill-rule="nonzero"/><path fill="#606060" d="M 53.632812 17.195312 C 54.117188 17.195312 54.488281 17.308594 54.742188 17.539062 C 54.996094 17.765625 55.125 18.117188 55.125 18.585938 L 55.125 18.757812 L 53.144531 18.757812 C 53.144531 18.949219 53.1875 19.09375 53.269531 19.191406 C 53.355469 19.289062 53.488281 19.335938 53.671875 19.335938 C 53.839844 19.335938 53.960938 19.300781 54.039062 19.230469 C 54.121094 19.160156 54.160156 19.066406 54.160156 18.949219 L 55.125 18.949219 C 55.125 19.269531 55.003906 19.523438 54.757812 19.703125 C 54.515625 19.886719 54.160156 19.976562 53.695312 19.976562 C 53.203125 19.976562 52.824219 19.859375 52.550781 19.632812 C 52.28125 19.402344 52.148438 19.054688 52.148438 18.585938 C 52.148438 18.121094 52.277344 17.785156 52.542969 17.546875 C 52.804688 17.3125 53.167969 17.195312 53.632812 17.195312 M 53.671875 17.835938 C 53.359375 17.835938 53.183594 17.984375 53.148438 18.285156 L 54.121094 18.285156 C 54.121094 18.144531 54.078125 18.035156 54 17.957031 C 53.921875 17.875 53.8125 17.835938 53.671875 17.835938 " fill-opacity="1" fill-rule="nonzero"/><path fill="#606060" d="M 57.367188 17.253906 L 57.367188 17.9375 L 56.804688 17.9375 L 56.804688 18.949219 C 56.804688 19.070312 56.824219 19.15625 56.867188 19.214844 C 56.90625 19.269531 56.980469 19.296875 57.085938 19.296875 L 57.367188 19.296875 L 57.367188 19.886719 C 57.285156 19.910156 57.183594 19.933594 57.054688 19.949219 C 56.929688 19.96875 56.820312 19.976562 56.726562 19.976562 C 56.433594 19.976562 56.207031 19.921875 56.046875 19.816406 C 55.890625 19.707031 55.8125 19.523438 55.8125 19.265625 L 55.8125 17.9375 L 55.441406 17.9375 L 55.441406 17.253906 L 55.851562 17.253906 L 56.066406 16.449219 L 56.804688 16.449219 L 56.804688 17.253906 Z M 57.367188 17.253906 " fill-opacity="1" fill-rule="nonzero"/><path fill="#606060" d="M 60.308594 19.914062 L 59.898438 18.433594 L 59.878906 18.433594 L 59.464844 19.914062 L 58.492188 19.914062 L 57.527344 17.253906 L 58.597656 17.253906 L 59 18.828125 L 59.03125 18.828125 L 59.449219 17.253906 L 60.441406 17.253906 L 60.839844 18.828125 L 60.875 18.828125 L 61.28125 17.253906 L 62.25 17.253906 L 61.28125 19.914062 Z M 60.308594 19.914062 " fill-opacity="1" fill-rule="nonzero"/><path fill="#606060" d="M 63.917969 17.195312 C 64.382812 17.195312 64.746094 17.3125 65.011719 17.550781 C 65.273438 17.789062 65.40625 18.132812 65.40625 18.585938 C 65.40625 19.039062 65.273438 19.382812 65.011719 19.621094 C 64.746094 19.859375 64.378906 19.976562 63.917969 19.976562 C 63.453125 19.976562 63.089844 19.859375 62.828125 19.625 C 62.5625 19.390625 62.429688 19.042969 62.429688 18.585938 C 62.429688 18.128906 62.5625 17.785156 62.828125 17.546875 C 63.089844 17.3125 63.453125 17.195312 63.917969 17.195312 M 63.917969 17.875 C 63.589844 17.875 63.425781 18.066406 63.425781 18.445312 L 63.425781 18.730469 C 63.425781 19.109375 63.589844 19.296875 63.917969 19.296875 C 64.246094 19.296875 64.414062 19.109375 64.414062 18.730469 L 64.414062 18.445312 C 64.414062 18.066406 64.246094 17.875 63.917969 17.875 " fill-opacity="1" fill-rule="nonzero"/><path fill="#606060" d="M 67.496094 17.191406 C 67.570312 17.191406 67.640625 17.199219 67.699219 17.21875 C 67.761719 17.238281 67.789062 17.246094 67.789062 17.25 L 67.789062 18.09375 L 67.46875 18.09375 C 67.261719 18.09375 67.113281 18.144531 67.023438 18.253906 C 66.929688 18.359375 66.882812 18.519531 66.882812 18.730469 L 66.882812 19.914062 L 65.886719 19.914062 L 65.886719 17.253906 L 66.703125 17.253906 L 66.769531 17.660156 C 66.828125 17.503906 66.925781 17.386719 67.054688 17.308594 C 67.183594 17.230469 67.332031 17.191406 67.496094 17.191406 " fill-opacity="1" fill-rule="nonzero"/><path fill="#606060" d="M 69.953125 17.253906 L 71.113281 17.253906 L 70.136719 18.328125 L 71.136719 19.914062 L 70.007812 19.914062 L 69.453125 19.003906 L 69.105469 19.34375 L 69.105469 19.914062 L 68.109375 19.914062 L 68.109375 16.257812 L 69.105469 16.257812 L 69.105469 18.273438 Z M 69.953125 17.253906 " fill-opacity="1" fill-rule="nonzero"/></svg>