<svg xmlns="http://www.w3.org/2000/svg" xmlns:xlink="http://www.w3.org/1999/xlink" width="300" zoomAndPan="magnify" viewBox="0 0 224.87999 112.499997" height="150" preserveAspectRatio="xMidYMid meet" version="1.0"><path fill="#048041" d="M 33.980469 53.726562 C 33.980469 59.996094 28.882812 65.074219 22.597656 65.074219 C 16.308594 65.074219 11.210938 59.996094 11.210938 53.726562 C 11.210938 47.460938 16.308594 42.378906 22.597656 42.378906 C 28.882812 42.378906 33.980469 47.460938 33.980469 53.726562 " fill-opacity="1" fill-rule="nonzero"/><path fill="#d9dad8" d="M 16.359375 61.027344 C 15.523438 60.394531 14.835938 59.617188 14.273438 58.742188 C 13.097656 56.910156 12.527344 54.902344 12.691406 52.734375 C 12.917969 49.6875 14.269531 47.210938 16.746094 45.394531 C 18.730469 43.9375 20.988281 43.269531 23.441406 43.53125 C 27.417969 43.953125 30.199219 46.054688 31.796875 49.710938 C 31.816406 49.757812 31.820312 49.8125 31.832031 49.863281 C 31.753906 49.882812 31.671875 49.902344 31.59375 49.929688 C 30.933594 50.183594 30.273438 50.4375 29.613281 50.6875 C 29.539062 50.53125 29.464844 50.375 29.386719 50.21875 C 28.039062 47.519531 25.839844 46.035156 22.835938 45.902344 C 20.445312 45.796875 18.417969 46.710938 16.851562 48.542969 C 14.535156 51.257812 14.484375 55.257812 16.734375 58.027344 C 17.074219 58.449219 17.488281 58.8125 17.863281 59.203125 C 17.363281 59.8125 16.859375 60.417969 16.359375 61.023438 " fill-opacity="1" fill-rule="nonzero"/><path fill="#84c459" d="M 16.359375 61.027344 C 16.859375 60.421875 17.363281 59.8125 17.863281 59.207031 C 17.976562 59.28125 18.09375 59.355469 18.203125 59.433594 C 19.8125 60.554688 21.59375 61.050781 23.542969 60.789062 C 25.707031 60.496094 27.460938 59.457031 28.722656 57.667969 C 29.839844 56.078125 30.292969 54.308594 30.019531 52.378906 C 29.9375 51.808594 29.753906 51.25 29.613281 50.6875 C 30.273438 50.433594 30.933594 50.179688 31.597656 49.929688 C 31.671875 49.898438 31.753906 49.882812 31.832031 49.859375 C 31.984375 50.332031 32.183594 50.796875 32.28125 51.277344 C 32.902344 54.332031 32.25 57.109375 30.316406 59.550781 C 28.734375 61.542969 26.644531 62.734375 24.125 63.125 C 21.269531 63.566406 18.703125 62.839844 16.421875 61.089844 C 16.398438 61.070312 16.378906 61.046875 16.359375 61.023438 " fill-opacity="1" fill-rule="nonzero"/><path fill="#fbfcfc" d="M 25.515625 47.914062 C 26.347656 48.308594 27.007812 48.910156 27.5625 49.632812 C 29.53125 52.214844 29.125 55.949219 26.652344 58.058594 C 23.539062 60.710938 18.769531 59.707031 16.996094 56.023438 C 16.953125 55.929688 16.929688 55.828125 16.894531 55.730469 C 17.359375 55.863281 17.535156 55.765625 17.625 55.320312 C 17.640625 55.363281 17.660156 55.40625 17.679688 55.445312 C 18.683594 57.789062 21.160156 59.089844 23.65625 58.582031 C 27.28125 57.847656 29.097656 53.714844 27.175781 50.59375 C 26.644531 49.734375 25.921875 49.089844 25.046875 48.601562 C 25.425781 48.570312 25.589844 48.375 25.519531 48.039062 C 25.511719 48 25.515625 47.953125 25.511719 47.910156 " fill-opacity="1" fill-rule="nonzero"/><path fill="#c5db66" d="M 17.625 55.320312 C 17.535156 55.765625 17.359375 55.863281 16.894531 55.730469 C 16.894531 55.730469 16.902344 55.730469 16.902344 55.730469 C 16.890625 55.714844 16.878906 55.695312 16.863281 55.679688 C 16.496094 54.914062 16.363281 54.097656 16.382812 53.261719 C 16.421875 51.648438 16.988281 50.238281 18.113281 49.085938 C 19.457031 47.707031 21.109375 47.050781 23.054688 47.179688 C 23.828125 47.230469 24.558594 47.4375 25.261719 47.757812 C 25.332031 47.789062 25.390625 47.835938 25.453125 47.875 C 25.476562 47.886719 25.496094 47.902344 25.515625 47.917969 L 25.515625 47.914062 C 25.515625 47.957031 25.511719 48 25.519531 48.042969 C 25.589844 48.375 25.429688 48.570312 25.046875 48.605469 C 25.011719 48.59375 24.972656 48.589844 24.941406 48.574219 C 24.335938 48.253906 23.6875 48.097656 23.007812 48.042969 C 20.757812 47.855469 18.570312 49.164062 17.6875 51.246094 C 17.113281 52.59375 17.082031 53.957031 17.625 55.324219 " fill-opacity="1" fill-rule="nonzero"/><path fill="#ffffff" d="M 22.574219 57.902344 C 20.085938 57.902344 18.039062 55.855469 18.042969 53.359375 C 18.046875 50.875 20.101562 48.828125 22.59375 48.824219 C 25.09375 48.824219 27.15625 50.886719 27.152344 53.378906 C 27.144531 55.882812 25.101562 57.902344 22.578125 57.902344 " fill-opacity="1" fill-rule="nonzero"/><path fill="#606060" d="M 42.28125 47.273438 C 44.066406 47.273438 45.449219 47.730469 46.421875 48.640625 C 47.394531 49.550781 47.882812 50.878906 47.882812 52.617188 C 47.882812 54.355469 47.394531 55.683594 46.421875 56.59375 C 45.449219 57.503906 44.066406 57.957031 42.28125 57.957031 C 40.492188 57.957031 39.117188 57.503906 38.148438 56.601562 C 37.179688 55.695312 36.699219 54.367188 36.699219 52.617188 C 36.699219 50.867188 37.179688 49.539062 38.148438 48.632812 C 39.117188 47.726562 40.496094 47.273438 42.28125 47.273438 M 42.28125 49.75 C 41.566406 49.75 41.027344 49.964844 40.65625 50.394531 C 40.285156 50.824219 40.097656 51.40625 40.097656 52.136719 L 40.097656 53.09375 C 40.097656 53.828125 40.285156 54.410156 40.65625 54.835938 C 41.027344 55.265625 41.566406 55.484375 42.28125 55.484375 C 42.992188 55.484375 43.539062 55.265625 43.914062 54.835938 C 44.289062 54.40625 44.480469 53.828125 44.480469 53.09375 L 44.480469 52.136719 C 44.480469 51.40625 44.289062 50.824219 43.914062 50.394531 C 43.539062 49.964844 42.992188 49.75 42.28125 49.75 " fill-opacity="1" fill-rule="nonzero"/><path fill="#606060" d="M 54.699219 49.675781 C 55.773438 49.675781 56.601562 50.027344 57.183594 50.726562 C 57.765625 51.429688 58.058594 52.464844 58.058594 53.832031 C 58.058594 55.203125 57.765625 56.222656 57.183594 56.917969 C 56.601562 57.613281 55.773438 57.960938 54.699219 57.960938 C 53.777344 57.960938 53.035156 57.660156 52.472656 57.058594 L 52.472656 60.738281 L 49.476562 60.738281 L 49.476562 49.855469 L 51.914062 49.855469 L 52.171875 50.984375 C 52.75 50.113281 53.59375 49.679688 54.699219 49.679688 M 53.769531 51.882812 C 53.324219 51.882812 52.992188 52.039062 52.773438 52.347656 C 52.554688 52.660156 52.445312 53.0625 52.445312 53.5625 L 52.445312 54.058594 C 52.445312 54.558594 52.554688 54.96875 52.773438 55.28125 C 52.992188 55.597656 53.324219 55.753906 53.769531 55.753906 C 54.628906 55.753906 55.0625 55.238281 55.0625 54.207031 L 55.0625 53.414062 C 55.0625 52.394531 54.632812 51.882812 53.769531 51.882812 " fill-opacity="1" fill-rule="nonzero"/><path fill="#606060" d="M 63.613281 49.675781 C 65.066406 49.675781 66.179688 50.015625 66.945312 50.695312 C 67.710938 51.378906 68.097656 52.417969 68.097656 53.820312 L 68.097656 54.328125 L 62.136719 54.328125 C 62.136719 54.898438 62.261719 55.328125 62.519531 55.621094 C 62.773438 55.910156 63.179688 56.054688 63.730469 56.054688 C 64.230469 56.054688 64.597656 55.949219 64.835938 55.738281 C 65.074219 55.527344 65.191406 55.25 65.191406 54.898438 L 68.097656 54.898438 C 68.097656 55.859375 67.730469 56.609375 66.996094 57.148438 C 66.265625 57.691406 65.195312 57.957031 63.792969 57.957031 C 62.316406 57.957031 61.171875 57.617188 60.359375 56.929688 C 59.546875 56.246094 59.140625 55.207031 59.140625 53.820312 C 59.140625 52.429688 59.535156 51.429688 60.328125 50.726562 C 61.121094 50.027344 62.214844 49.675781 63.609375 49.675781 M 63.730469 51.582031 C 62.789062 51.582031 62.261719 52.027344 62.152344 52.917969 L 65.074219 52.917969 C 65.074219 52.507812 64.953125 52.183594 64.71875 51.941406 C 64.480469 51.703125 64.152344 51.582031 63.730469 51.582031 " fill-opacity="1" fill-rule="nonzero"/><path fill="#606060" d="M 75.023438 49.675781 C 75.945312 49.675781 76.636719 49.933594 77.101562 50.441406 C 77.5625 50.953125 77.792969 51.6875 77.792969 52.648438 L 77.792969 57.78125 L 74.796875 57.78125 L 74.796875 53.007812 C 74.796875 52.667969 74.707031 52.394531 74.53125 52.191406 C 74.359375 51.984375 74.109375 51.882812 73.789062 51.882812 C 73.417969 51.882812 73.117188 52.003906 72.886719 52.246094 C 72.652344 52.484375 72.539062 52.777344 72.539062 53.128906 L 72.539062 57.78125 L 69.542969 57.78125 L 69.542969 49.855469 L 71.996094 49.855469 L 72.191406 51.058594 C 72.503906 50.636719 72.914062 50.304688 73.421875 50.054688 C 73.925781 49.804688 74.460938 49.679688 75.023438 49.679688 " fill-opacity="1" fill-rule="nonzero"/><path fill="#606060" d="M 83.378906 47.277344 L 86.707031 47.277344 L 86.707031 57.597656 L 83.378906 57.597656 Z M 83.378906 47.277344 " fill-opacity="1" fill-rule="nonzero"/><path fill="#606060" d="M 93.707031 49.480469 C 93.9375 49.480469 94.140625 49.507812 94.324219 49.566406 C 94.503906 49.617188 94.59375 49.652344 94.59375 49.664062 L 94.59375 52.167969 L 93.632812 52.167969 C 93.007812 52.167969 92.558594 52.328125 92.285156 52.648438 C 92.007812 52.96875 91.871094 53.445312 91.871094 54.074219 L 91.871094 57.597656 L 88.875 57.597656 L 88.875 49.675781 L 91.328125 49.675781 L 91.523438 50.875 C 91.703125 50.414062 91.992188 50.070312 92.382812 49.832031 C 92.773438 49.597656 93.214844 49.480469 93.707031 49.480469 " fill-opacity="1" fill-rule="nonzero"/><path fill="#606060" d="M 99.667969 49.496094 C 101.125 49.496094 102.234375 49.835938 103 50.515625 C 103.769531 51.199219 104.152344 52.238281 104.152344 53.640625 L 104.152344 54.148438 L 98.195312 54.148438 C 98.195312 54.71875 98.320312 55.148438 98.574219 55.441406 C 98.832031 55.730469 99.234375 55.875 99.785156 55.875 C 100.289062 55.875 100.65625 55.769531 100.890625 55.558594 C 101.128906 55.351562 101.246094 55.070312 101.246094 54.71875 L 104.152344 54.71875 C 104.152344 55.679688 103.785156 56.429688 103.054688 56.972656 C 102.324219 57.511719 101.253906 57.78125 99.847656 57.78125 C 98.371094 57.78125 97.230469 57.4375 96.414062 56.753906 C 95.601562 56.066406 95.195312 55.03125 95.195312 53.640625 C 95.195312 52.25 95.59375 51.25 96.386719 50.546875 C 97.179688 49.847656 98.273438 49.496094 99.667969 49.496094 M 99.785156 51.402344 C 98.84375 51.402344 98.316406 51.847656 98.207031 52.738281 L 101.128906 52.738281 C 101.128906 52.328125 101.007812 52.003906 100.773438 51.761719 C 100.535156 51.523438 100.207031 51.402344 99.785156 51.402344 " fill-opacity="1" fill-rule="nonzero"/><path fill="#606060" d="M 105.703125 46.71875 L 108.699219 46.71875 L 108.699219 57.601562 L 105.703125 57.601562 Z M 105.703125 46.71875 " fill-opacity="1" fill-rule="nonzero"/><path fill="#606060" d="M 114.542969 49.496094 C 115.753906 49.496094 116.742188 49.699219 117.503906 50.105469 C 118.265625 50.511719 118.648438 51.167969 118.648438 52.078125 L 118.648438 55.171875 C 118.648438 55.339844 118.6875 55.480469 118.769531 55.589844 C 118.847656 55.699219 118.96875 55.753906 119.132812 55.753906 L 119.675781 55.753906 L 119.675781 57.480469 C 119.644531 57.5 119.566406 57.53125 119.441406 57.578125 C 119.316406 57.621094 119.136719 57.667969 118.90625 57.710938 C 118.675781 57.757812 118.410156 57.78125 118.109375 57.78125 C 117.523438 57.78125 117.042969 57.691406 116.667969 57.519531 C 116.292969 57.34375 116.035156 57.101562 115.894531 56.789062 C 115.511719 57.089844 115.085938 57.328125 114.613281 57.507812 C 114.140625 57.6875 113.589844 57.78125 112.957031 57.78125 C 111.089844 57.78125 110.160156 57.039062 110.160156 55.558594 C 110.160156 54.789062 110.367188 54.199219 110.78125 53.796875 C 111.199219 53.390625 111.800781 53.113281 112.582031 52.964844 C 113.367188 52.816406 114.390625 52.738281 115.652344 52.738281 L 115.652344 52.351562 C 115.652344 52.039062 115.542969 51.804688 115.328125 51.644531 C 115.113281 51.484375 114.835938 51.40625 114.496094 51.40625 C 114.183594 51.40625 113.917969 51.460938 113.691406 51.570312 C 113.464844 51.679688 113.351562 51.855469 113.351562 52.09375 L 113.351562 52.15625 L 110.402344 52.15625 C 110.390625 52.105469 110.386719 52.035156 110.386719 51.945312 C 110.386719 51.195312 110.742188 50.597656 111.460938 50.160156 C 112.179688 49.71875 113.203125 49.5 114.542969 49.5 M 115.652344 54.148438 C 114.800781 54.148438 114.171875 54.242188 113.765625 54.425781 C 113.359375 54.613281 113.15625 54.859375 113.15625 55.167969 C 113.15625 55.671875 113.496094 55.917969 114.179688 55.917969 C 114.570312 55.917969 114.914062 55.8125 115.210938 55.605469 C 115.503906 55.394531 115.652344 55.132812 115.652344 54.824219 Z M 115.652344 54.148438 " fill-opacity="1" fill-rule="nonzero"/><path fill="#606060" d="M 126.132812 49.496094 C 127.054688 49.496094 127.746094 49.753906 128.210938 50.261719 C 128.671875 50.773438 128.902344 51.507812 128.902344 52.46875 L 128.902344 57.597656 L 125.90625 57.597656 L 125.90625 52.828125 C 125.90625 52.488281 125.816406 52.214844 125.640625 52.011719 C 125.464844 51.804688 125.21875 51.703125 124.898438 51.703125 C 124.527344 51.703125 124.226562 51.824219 123.992188 52.066406 C 123.761719 52.304688 123.648438 52.597656 123.648438 52.949219 L 123.648438 57.601562 L 120.652344 57.601562 L 120.652344 49.675781 L 123.105469 49.675781 L 123.300781 50.875 C 123.613281 50.457031 124.023438 50.125 124.527344 49.871094 C 125.035156 49.625 125.570312 49.496094 126.132812 49.496094 " fill-opacity="1" fill-rule="nonzero"/><path fill="#606060" d="M 136.472656 57.601562 L 136.214844 56.472656 C 135.632812 57.34375 134.792969 57.78125 133.6875 57.78125 C 132.582031 57.78125 131.785156 57.429688 131.203125 56.730469 C 130.621094 56.03125 130.332031 54.996094 130.332031 53.625 C 130.332031 52.253906 130.621094 51.234375 131.203125 50.542969 C 131.785156 49.84375 132.613281 49.496094 133.6875 49.496094 C 134.601562 49.496094 135.34375 49.800781 135.914062 50.414062 L 135.914062 46.71875 L 138.910156 46.71875 L 138.910156 57.597656 L 136.472656 57.597656 Z M 134.621094 51.703125 C 133.757812 51.703125 133.328125 52.21875 133.328125 53.246094 L 133.328125 54.042969 C 133.328125 55.0625 133.757812 55.574219 134.621094 55.574219 C 135.0625 55.574219 135.394531 55.417969 135.613281 55.109375 C 135.832031 54.796875 135.945312 54.394531 135.945312 53.894531 L 135.945312 53.398438 C 135.945312 52.898438 135.832031 52.488281 135.613281 52.175781 C 135.394531 51.859375 135.0625 51.703125 134.621094 51.703125 " fill-opacity="1" fill-rule="nonzero"/><path fill="#606060" d="M 151.90625 57.796875 L 147.554688 52.785156 L 147.554688 57.796875 L 144.5 57.796875 L 144.5 47.472656 L 147.402344 47.472656 L 151.753906 52.558594 L 151.753906 47.472656 L 154.808594 47.472656 L 154.808594 57.796875 Z M 151.90625 57.796875 " fill-opacity="1" fill-rule="nonzero"/><path fill="#606060" d="M 160.9375 49.691406 C 162.390625 49.691406 163.503906 50.035156 164.269531 50.714844 C 165.039062 51.394531 165.421875 52.433594 165.421875 53.835938 L 165.421875 54.34375 L 159.460938 54.34375 C 159.460938 54.914062 159.589844 55.34375 159.84375 55.636719 C 160.101562 55.925781 160.503906 56.070312 161.054688 56.070312 C 161.554688 56.070312 161.925781 55.964844 162.160156 55.753906 C 162.398438 55.546875 162.515625 55.265625 162.515625 54.914062 L 165.421875 54.914062 C 165.421875 55.875 165.054688 56.625 164.324219 57.167969 C 163.589844 57.707031 162.523438 57.972656 161.117188 57.972656 C 159.640625 57.972656 158.496094 57.632812 157.683594 56.945312 C 156.871094 56.261719 156.464844 55.226562 156.464844 53.835938 C 156.464844 52.445312 156.859375 51.445312 157.65625 50.746094 C 158.449219 50.042969 159.542969 49.691406 160.9375 49.691406 M 161.054688 51.597656 C 160.113281 51.597656 159.585938 52.042969 159.476562 52.933594 L 162.398438 52.933594 C 162.398438 52.523438 162.277344 52.199219 162.042969 51.960938 C 161.804688 51.71875 161.476562 51.597656 161.054688 51.597656 " fill-opacity="1" fill-rule="nonzero"/><path fill="#606060" d="M 172.167969 49.871094 L 172.167969 51.898438 L 170.480469 51.898438 L 170.480469 54.914062 C 170.480469 55.273438 170.539062 55.535156 170.660156 55.703125 C 170.78125 55.867188 171.003906 55.949219 171.324219 55.949219 L 172.167969 55.949219 L 172.167969 57.703125 C 171.925781 57.785156 171.613281 57.847656 171.234375 57.898438 C 170.851562 57.949219 170.519531 57.972656 170.238281 57.972656 C 169.355469 57.972656 168.675781 57.8125 168.199219 57.496094 C 167.722656 57.175781 167.488281 56.628906 167.488281 55.859375 L 167.488281 51.898438 L 166.371094 51.898438 L 166.371094 49.871094 L 167.605469 49.871094 L 168.253906 47.472656 L 170.480469 47.472656 L 170.480469 49.871094 Z M 172.167969 49.871094 " fill-opacity="1" fill-rule="nonzero"/><path fill="#606060" d="M 181.015625 57.796875 L 179.785156 53.382812 L 179.722656 53.382812 L 178.472656 57.796875 L 175.550781 57.796875 L 172.648438 49.871094 L 175.867188 49.871094 L 177.074219 54.554688 L 177.179688 54.554688 L 178.429688 49.871094 L 181.410156 49.871094 L 182.613281 54.554688 L 182.71875 54.554688 L 183.9375 49.871094 L 186.859375 49.871094 L 183.9375 57.796875 Z M 181.015625 57.796875 " fill-opacity="1" fill-rule="nonzero"/><path fill="#606060" d="M 191.871094 49.691406 C 193.265625 49.691406 194.363281 50.046875 195.160156 50.75 C 195.957031 51.457031 196.355469 52.484375 196.355469 53.835938 C 196.355469 55.1875 195.957031 56.214844 195.160156 56.917969 C 194.359375 57.625 193.265625 57.976562 191.871094 57.976562 C 190.480469 57.976562 189.382812 57.625 188.589844 56.925781 C 187.796875 56.226562 187.402344 55.195312 187.402344 53.835938 C 187.402344 52.472656 187.796875 51.445312 188.589844 50.746094 C 189.382812 50.042969 190.476562 49.691406 191.871094 49.691406 M 191.871094 51.71875 C 190.886719 51.71875 190.398438 52.28125 190.398438 53.414062 L 190.398438 54.269531 C 190.398438 55.390625 190.886719 55.949219 191.871094 55.949219 C 192.855469 55.949219 193.363281 55.390625 193.363281 54.269531 L 193.363281 53.414062 C 193.363281 52.28125 192.863281 51.71875 191.871094 51.71875 " fill-opacity="1" fill-rule="nonzero"/><path fill="#606060" d="M 202.632812 49.675781 C 202.863281 49.675781 203.070312 49.703125 203.253906 49.761719 C 203.433594 49.816406 203.523438 49.847656 203.523438 49.859375 L 203.523438 52.363281 L 202.558594 52.363281 C 201.9375 52.363281 201.488281 52.523438 201.210938 52.84375 C 200.9375 53.164062 200.796875 53.640625 200.796875 54.269531 L 200.796875 57.792969 L 197.800781 57.792969 L 197.800781 49.871094 L 200.253906 49.871094 L 200.453125 51.070312 C 200.632812 50.613281 200.917969 50.265625 201.308594 50.03125 C 201.699219 49.792969 202.144531 49.675781 202.632812 49.675781 " fill-opacity="1" fill-rule="nonzero"/><path fill="#606060" d="M 210.027344 49.871094 L 213.515625 49.871094 L 210.582031 53.070312 L 213.589844 57.796875 L 210.191406 57.796875 L 208.519531 55.078125 L 207.480469 56.085938 L 207.480469 57.796875 L 204.484375 57.796875 L 204.484375 46.902344 L 207.480469 46.902344 L 207.480469 52.902344 Z M 210.027344 49.871094 " fill-opacity="1" fill-rule="nonzero"/></svg>